<svg width="265" height="81" viewBox="0 0 265 81" fill="none" xmlns="http://www.w3.org/2000/svg">
<path d="M265 45.433V37.5282L257.003 30.2455C257.357 29.5949 257.671 28.8986 257.933 28.1532C258.487 26.5884 258.767 24.7456 258.767 22.677C258.767 21.2417 258.63 19.9216 258.364 18.7246C258.63 17.5261 258.767 16.206 258.767 14.7722C258.767 12.5915 258.456 10.6682 257.843 9.05439C257.228 7.43426 256.388 6.02731 255.348 4.87459C254.305 3.71871 253.087 2.78864 251.723 2.10648C250.485 1.49064 249.18 1.01692 247.845 0.701107C246.568 0.399505 245.269 0.2037 243.982 0.11843C242.791 0.0410558 241.678 0.00157907 240.68 0.00157907H176.049V8.52382C175.623 7.73902 175.152 7.01423 174.63 6.3605C173.481 4.92196 172.152 3.74871 170.679 2.87391C169.305 2.05911 167.864 1.42432 166.394 0.988498C164.967 0.565307 163.536 0.28897 162.142 0.168961C160.86 0.0584256 159.693 0.00315814 158.667 0.00315814H117.418V15.1149L105.791 0.00157907H48.205V6.05731C47.9138 5.63886 47.6053 5.24251 47.273 4.87301C46.2303 3.71713 45.0119 2.78706 43.6479 2.1049C42.4106 1.48906 41.1052 1.01534 39.7697 0.699528C38.4928 0.397926 37.1937 0.202121 35.9057 0.116851C34.7142 0.0394768 33.6019 0 32.6034 0H6.95582V45.4314H14.7534L0 73.0952V81H17.5747L19.8643 76.4728H32.6256L34.9152 81H65.7021V58.8425H74.0045V81H147.708V70.8703C147.786 71.0266 147.857 71.1861 147.939 71.3377C149.227 73.7189 150.992 75.6706 153.182 77.1392C155.281 78.5477 157.728 79.5615 160.457 80.1568C163.027 80.7158 165.759 81 168.576 81C171.392 81 173.922 80.7331 176.454 80.2057C179.15 79.6452 181.597 78.6567 183.723 77.2687C184.587 76.7065 185.385 76.067 186.119 75.358V81H221.1V73.1094C221.539 74.0347 222.118 74.9411 222.83 75.808C223.707 76.8786 224.86 77.8182 226.259 78.5998C227.574 79.3341 229.173 79.9262 231.012 80.3605C232.808 80.7852 234.939 81 237.346 81H242.875C245.294 81 247.417 80.8026 249.185 80.4142C250.998 80.0162 252.579 79.4715 253.883 78.794C255.27 78.074 256.421 77.2134 257.302 76.2375C258.144 75.3027 258.808 74.3174 259.275 73.3083C259.74 72.3041 260.047 71.2777 260.188 70.2576C260.264 69.7002 260.313 69.187 260.34 68.7022L260.365 68.6833V59.9936C260.365 58.4493 260.095 56.9286 259.558 55.4712C259.15 54.3611 258.565 53.3378 257.816 52.4109V45.433H265ZM39.4896 48.6654L37.7697 45.433H39.4896V48.6654ZM49.8996 76.1428L48.2793 73.0952H49.8996V76.1428ZM49.8996 68.238L44.9027 58.8425H49.8996V68.238ZM114.879 58.3482C114.486 58.9925 114.137 59.6778 113.834 60.4058C113.684 60.7658 113.554 61.1448 113.434 61.5332V58.7509H89.8054V45.4346H103.233V30.3039L114.523 44.9419C114.19 45.463 113.885 46.0094 113.613 46.5842L112.257 49.4375L116.023 50.8824C115.064 51.9325 114.255 53.1373 113.613 54.489L112.257 57.3424L114.879 58.3482ZM159.197 22.8476H148.129V22.6328H159.197C159.71 22.6328 160.06 22.6833 160.294 22.7402C160.06 22.797 159.71 22.8476 159.197 22.8476ZM176.044 37.1934C175.997 37.1839 175.948 37.1761 175.9 37.1666C175.948 37.0813 175.998 36.9992 176.044 36.9123V37.1934Z" fill="#711B44"/>
<path d="M47.7603 14.7722C47.7603 16.5171 47.5388 18.0188 47.0942 19.2741C46.6496 20.5311 46.0562 21.5954 45.3157 22.4686C44.5752 23.3418 43.7223 24.0429 42.7603 24.5751C41.7966 25.1072 40.7824 25.5225 39.7159 25.8178L49.3616 34.6006H36.0703L27.7141 26.6152H20.1127V34.6006H9.88942V2.92918H32.6034C33.5512 2.92918 34.5876 2.96707 35.7142 3.03971C36.8409 3.11393 37.9659 3.28289 39.0925 3.54975C40.2175 3.81661 41.2998 4.20822 42.3378 4.72458C43.3742 5.24251 44.2935 5.9452 45.0942 6.83106C45.8948 7.7185 46.5388 8.8049 47.0277 10.0918C47.5167 11.3788 47.7603 12.9389 47.7603 14.7722ZM20.1127 17.744H31.5813C32.7079 17.744 33.6256 17.7077 34.3376 17.6335C35.0481 17.5593 35.6114 17.4124 36.0275 17.1898C36.4421 16.9687 36.7317 16.6655 36.8946 16.2802C37.0576 15.8965 37.1383 15.3928 37.1383 14.7722C37.1383 14.1516 37.056 13.6479 36.8946 13.2642C36.7317 12.8805 36.4421 12.5773 36.0275 12.3546C35.613 12.1336 35.0497 11.9851 34.3376 11.9109C33.6272 11.8367 32.7079 11.8004 31.5813 11.8004H20.1127V17.744Z" fill="#FF7FDE"/>
<path d="M85.6772 2.92918V11.6678H61.3176V14.728H85.6772V23.0228H61.3176V25.862H85.6772V34.6006H51.1386V2.92918H85.6772Z" fill="#FF7FDE"/>
<path d="M120.349 2.92918H130.528V34.6022H116.349L100.302 13.7979V34.6022H90.1235V2.92918H104.348L120.35 23.7334V2.92918H120.349Z" fill="#FF7FDE"/>
<path d="M175.421 18.7657C175.421 21.1911 175.139 23.2676 174.576 24.9983C174.013 26.7289 173.264 28.1769 172.331 29.3454C171.397 30.514 170.345 31.4456 169.174 32.1404C168.003 32.8352 166.796 33.3673 165.55 33.7368C164.307 34.1063 163.084 34.3432 161.883 34.4458C160.682 34.5501 159.607 34.6006 158.659 34.6006H134.968V2.92918H158.659C159.607 2.92918 160.682 2.98129 161.883 3.08392C163.084 3.18814 164.305 3.425 165.55 3.79293C166.796 4.16243 168.001 4.69458 169.174 5.38937C170.345 6.08416 171.397 7.01581 172.331 8.18432C173.264 9.35283 174.013 10.8008 174.576 12.5315C175.139 14.2622 175.421 16.3402 175.421 18.7641V18.7657ZM159.197 25.7736C160.324 25.7736 161.242 25.5967 161.954 25.2414C162.666 24.8861 163.228 24.3982 163.644 23.7776C164.058 23.1571 164.348 22.4181 164.511 21.559C164.674 20.7016 164.756 19.77 164.756 18.7641C164.756 17.7582 164.674 16.8345 164.511 15.9912C164.348 15.148 164.058 14.4169 163.644 13.7948C163.229 13.1742 162.666 12.6863 161.954 12.331C161.243 11.9757 160.324 11.7988 159.197 11.7988H145.196V25.772H159.197V25.7736Z" fill="#FF7FDE"/>
<path d="M213.515 2.92918V11.6678H189.157V14.728H213.515V23.0228H189.157V25.862H213.515V34.6006H178.976V2.92918H213.515Z" fill="#FF7FDE"/>
<path d="M255.832 14.7722C255.832 16.5171 255.609 18.0188 255.166 19.2741C254.721 20.5311 254.128 21.5954 253.387 22.4686C252.647 23.3418 251.794 24.0429 250.832 24.5751C249.868 25.1072 248.854 25.5225 247.788 25.8178L257.433 34.6006H244.142L235.786 26.6152H228.184V34.6006H217.961V2.92918H240.675C241.623 2.92918 242.659 2.96707 243.786 3.03971C244.911 3.11393 246.038 3.28289 247.164 3.54975C248.291 3.81661 249.372 4.20822 250.41 4.72458C251.446 5.24251 252.365 5.9452 253.166 6.83106C253.967 7.7185 254.611 8.8049 255.099 10.0918C255.588 11.3788 255.834 12.9389 255.834 14.7722H255.832ZM228.184 17.744H239.653C240.78 17.744 241.697 17.7077 242.409 17.6335C243.121 17.5593 243.683 17.4124 244.099 17.1898C244.514 16.9687 244.803 16.6655 244.966 16.2802C245.129 15.8965 245.212 15.3928 245.212 14.7722C245.212 14.1516 245.129 13.6479 244.966 13.2642C244.803 12.8805 244.514 12.5773 244.099 12.3546C243.685 12.1336 243.121 11.9851 242.409 11.9109C241.699 11.8367 240.78 11.8004 239.653 11.8004H228.184V17.744Z" fill="#FF7FDE"/>
<path d="M31.2347 39.3883L47.6069 70.1676H36.7206L34.431 65.6404H18.0589L15.7693 70.1676H4.88458L21.2994 39.3883H31.2347ZM30.3265 57.4939L26.2663 49.4328L22.2061 57.4939H30.3265Z" fill="#FF7FDE"/>
<path d="M42.4232 39.3883H73.4823V48.0101H62.7701V70.1676H52.8348V48.0101H42.4248V39.3883H42.4232Z" fill="#FF7FDE"/>
<path d="M110.502 61.6753V70.1676H76.9381V39.3883H86.8734V61.6753H110.502Z" fill="#FF7FDE"/>
<path d="M146.761 49.1738C146.761 50.985 146.365 52.4709 145.572 53.6363C144.779 54.8001 143.743 55.7491 142.461 56.4818C141.18 57.2145 139.754 57.7892 138.184 58.2061C136.615 58.623 135.045 59.0035 133.475 59.3478C131.906 59.692 130.43 60.0599 129.048 60.4468C127.665 60.8353 126.543 61.3595 125.679 62.0211H144.773V70.1691H115.659V66.6778C115.659 64.6661 115.953 62.9496 116.545 61.5269C117.135 60.1042 117.92 58.9041 118.899 57.9282C119.879 56.9507 120.986 56.147 122.225 55.5138C123.463 54.8822 124.73 54.3642 126.026 53.9616C127.322 53.5589 128.589 53.2226 129.827 52.9478C131.064 52.6746 132.173 52.403 133.153 52.1283C134.132 51.8551 134.917 51.5393 135.507 51.1792C136.097 50.8208 136.393 50.3534 136.393 49.7786C136.393 49.5196 136.335 49.2828 136.221 49.068C136.105 48.8517 135.904 48.6654 135.616 48.5075C135.328 48.3496 134.931 48.228 134.428 48.1411C133.923 48.0543 133.268 48.0116 132.463 48.0116C130.475 48.0116 128.906 48.2848 127.754 48.8312C126.602 49.3775 125.694 50.1671 125.032 51.2029L116.263 47.8411C117.069 46.1452 118.17 44.7587 119.567 43.6818C120.964 42.6033 122.44 41.7569 123.994 41.1379C125.55 40.5205 127.097 40.0894 128.638 39.8447C130.178 39.6015 131.51 39.4641 132.634 39.4357C134.966 39.4357 137.01 39.6726 138.768 40.1463C140.525 40.62 141.993 41.2895 143.175 42.1517C144.355 43.0139 145.248 44.0419 145.854 45.2341C146.458 46.4262 146.761 47.7416 146.761 49.1786V49.1738Z" fill="#FF7FDE"/>
<path d="M188.187 54.778C188.187 57.7387 187.632 60.2036 186.524 62.1712C185.415 64.1403 183.946 65.7209 182.117 66.9131C180.288 68.1069 178.201 68.9469 175.853 69.4349C173.505 69.9244 171.079 70.1676 168.574 70.1676C166.069 70.1676 163.455 69.9086 161.079 69.3922C158.702 68.8743 156.615 68.0121 154.814 66.8057C153.014 65.5993 151.582 64.0108 150.517 62.0417C149.45 60.0742 148.919 57.6519 148.919 54.778C148.919 51.904 149.473 49.3538 150.582 47.3847C151.689 45.4172 153.166 43.835 155.009 42.6428C156.851 41.4506 158.946 40.6105 161.294 40.121C163.641 39.6331 166.068 39.3883 168.573 39.3883C171.077 39.3883 173.598 39.6473 175.959 40.1637C178.32 40.6816 180.408 41.5359 182.223 42.7281C184.038 43.9218 185.484 45.5025 186.565 47.47C187.646 49.4391 188.185 51.874 188.185 54.7764L188.187 54.778ZM168.576 61.5901C169.699 61.5901 170.843 61.5253 172.009 61.3958C173.176 61.2663 174.22 60.9647 175.141 60.491C176.062 60.0173 176.818 59.3273 177.408 58.4224C177.998 57.5176 178.294 56.3033 178.294 54.7795C178.294 53.2557 177.998 52.0414 177.408 51.1366C176.818 50.2318 176.062 49.5496 175.141 49.0886C174.218 48.629 173.176 48.3338 172.009 48.2043C170.843 48.0748 169.699 48.0101 168.576 48.0101C167.452 48.0101 166.308 48.0748 165.142 48.2043C163.976 48.3338 162.924 48.629 161.989 49.0886C161.052 49.5481 160.289 50.2318 159.699 51.1366C159.109 52.0414 158.813 53.2557 158.813 54.7795C158.813 56.3033 159.107 57.5161 159.699 58.4224C160.289 59.3273 161.052 60.0173 161.989 60.491C162.924 60.9647 163.976 61.2663 165.142 61.3958C166.308 61.5253 167.454 61.5901 168.576 61.5901Z" fill="#FF7FDE"/>
<path d="M220.154 49.1738C220.154 50.985 219.759 52.4709 218.966 53.6363C218.173 54.8001 217.137 55.7491 215.855 56.4818C214.573 57.2145 213.148 57.7892 211.578 58.2061C210.008 58.623 208.439 59.0035 206.869 59.3478C205.3 59.692 203.823 60.0599 202.442 60.4468C201.059 60.8353 199.937 61.3595 199.073 62.0211H218.167V70.1691H189.052V66.6778C189.052 64.6661 189.347 62.9496 189.939 61.5269C190.529 60.1042 191.314 58.9041 192.293 57.9282C193.272 56.9523 194.38 56.147 195.619 55.5138C196.856 54.8822 198.124 54.3642 199.42 53.9616C200.716 53.5589 201.983 53.2226 203.22 52.9478C204.458 52.6746 205.567 52.403 206.546 52.1283C207.526 51.8551 208.311 51.5393 208.901 51.1792C209.491 50.8208 209.787 50.3534 209.787 49.7786C209.787 49.5196 209.728 49.2828 209.615 49.068C209.499 48.8517 209.298 48.6654 209.01 48.5075C208.722 48.3496 208.325 48.228 207.822 48.1411C207.317 48.0543 206.662 48.0116 205.857 48.0116C203.869 48.0116 202.299 48.2848 201.148 48.8312C199.996 49.3775 199.087 50.1671 198.426 51.2029L189.657 47.8411C190.462 46.1452 191.564 44.7587 192.961 43.6818C194.358 42.6033 195.834 41.7569 197.388 41.1379C198.943 40.5205 200.491 40.0894 202.032 39.8447C203.572 39.6015 204.904 39.4641 206.027 39.4357C208.36 39.4357 210.404 39.6726 212.162 40.1463C213.918 40.62 215.387 41.2895 216.569 42.1517C217.749 43.0139 218.642 44.0419 219.248 45.2341C219.852 46.4262 220.154 47.7416 220.154 49.1786V49.1738Z" fill="#FF7FDE"/>
<path d="M245.943 50.5966C248.016 50.5966 249.788 50.8555 251.256 51.3719C252.724 51.8898 253.913 52.5862 254.819 53.4626C255.726 54.339 256.389 55.3448 256.807 56.4802C257.225 57.6155 257.433 58.7856 257.433 59.9936C257.433 60.5684 257.383 61.2221 257.283 61.9548C257.182 62.6875 256.959 63.4281 256.614 64.175C256.269 64.9219 255.772 65.6562 255.123 66.3731C254.474 67.0915 253.611 67.7311 252.531 68.2916C251.451 68.8522 250.126 69.3054 248.557 69.6496C246.987 69.9939 245.093 70.1676 242.876 70.1676H237.348C235.159 70.1676 233.272 69.9812 231.689 69.607C230.105 69.2343 228.773 68.7448 227.694 68.1416C226.613 67.5384 225.749 66.842 225.102 66.0509C224.453 65.2614 223.957 64.4561 223.612 63.6365C223.267 62.817 223.042 62.0054 222.942 61.2016C222.841 60.3979 222.792 59.6652 222.792 59.0035H232.685C232.685 59.3478 232.735 59.6715 232.836 59.9731C232.936 60.2747 233.131 60.5479 233.419 60.7926C233.707 61.0374 234.132 61.2316 234.692 61.3737C235.254 61.5174 235.98 61.5901 236.874 61.5901H244.218C245.37 61.5901 246.212 61.3532 246.745 60.8779C247.278 60.4042 247.544 59.7647 247.544 58.9593C247.544 58.6435 247.485 58.334 247.372 58.0324C247.256 57.7308 247.061 57.4576 246.788 57.2129C246.514 56.9697 246.147 56.7676 245.686 56.6097C245.226 56.4518 244.664 56.3728 244.001 56.3728H222.748L226.116 39.3883H254.886V47.579H234.411L233.806 50.5966H245.944H245.943Z" fill="#FCF9EE"/>
</svg>
